inDegrees=no
num_controls=7
num_derivatives=13
num_iterations=111
num_multipliers=7
num_parameters=0
num_slacks=7
num_states=26
objective=0.444912
objective_accelerations=0.057731
objective_balance=0.003519
objective_effort=0.023131
objective_height=0.355039
objective_ligament=0.005493
solver_duration=1606.333406
status=Solve_Succeeded
success=true
DataType=double
version=3
OpenSimVersion=4.5
endheader
time	/jointset/ground_pelvis/pelvis_tilt/value	/jointset/ground_pelvis/pelvis_tx/value	/jointset/ground_pelvis/pelvis_ty/value	/jointset/hip_l/hip_flexion_l/value	/jointset/hip_l/hip_adduction_l/value	/jointset/hip_l/hip_rotation_l/value	/jointset/back/lumbar_extension/value	/jointset/patellofemoral_l/patellar_flexion_l/value	/jointset/knee_l/knee_flexion_l/value	/jointset/knee_l/knee_adduction_l/value	/jointset/knee_l/knee_rotation_l/value	/jointset/ankle_l/ankle_angle_l/value	/jointset/subtalar_l/subtalar_angle_l/value	/jointset/ground_pelvis/pelvis_tilt/speed	/jointset/ground_pelvis/pelvis_tx/speed	/jointset/ground_pelvis/pelvis_ty/speed	/jointset/hip_l/hip_flexion_l/speed	/jointset/hip_l/hip_adduction_l/speed	/jointset/hip_l/hip_rotation_l/speed	/jointset/back/lumbar_extension/speed	/jointset/patellofemoral_l/patellar_flexion_l/speed	/jointset/knee_l/knee_flexion_l/speed	/jointset/knee_l/knee_adduction_l/speed	/jointset/knee_l/knee_rotation_l/speed	/jointset/ankle_l/ankle_angle_l/speed	/jointset/subtalar_l/subtalar_angle_l/speed	/forceset/tau_hip_flexion_l	/forceset/tau_hip_adduction_l	/forceset/tau_hip_rotation_l	/forceset/tau_knee_flexion_l	/forceset/tau_ankle_angle_l	/forceset/tau_subtalar_angle_l	/forceset/tau_lumbar_extension	lambda_cid13_p0	lambda_cid13_p1	lambda_cid13_p2	lambda_cid13_p3	lambda_cid13_p4	lambda_cid13_p5	lambda_cid14_p0	/jointset/ground_pelvis/pelvis_tilt/accel	/jointset/ground_pelvis/pelvis_tx/accel	/jointset/ground_pelvis/pelvis_ty/accel	/jointset/hip_l/hip_flexion_l/accel	/jointset/hip_l/hip_adduction_l/accel	/jointset/hip_l/hip_rotation_l/accel	/jointset/back/lumbar_extension/accel	/jointset/patellofemoral_l/patellar_flexion_l/accel	/jointset/knee_l/knee_flexion_l/accel	/jointset/knee_l/knee_adduction_l/accel	/jointset/knee_l/knee_rotation_l/accel	/jointset/ankle_l/ankle_angle_l/accel	/jointset/subtalar_l/subtalar_angle_l/accel	gamma_cid13_p0	gamma_cid13_p1	gamma_cid13_p2	gamma_cid13_p3	gamma_cid13_p4	gamma_cid13_p5	gamma_cid14_p0
0	-0.03943069542491142	0.06887189700029436	0.8959470112340214	0.1955287580552426	-0.3220469380780939	-0.4825952223938293	-0.1379045077516729	0.07015288079084894	0.07015288079084844	-0.1745328517156609	-0.1171012688622825	-0.06701059314715049	0.003767309619782159	0	0	0	0	0	0	0	0	0	0	0	0	0	0.1061745733065081	-0.102490124151743	-0.02986384938591932	-0.2331066459227424	0.1889863491378618	-0.01175304301796818	-0.05134310775648662	25.16374538836235	-2.267793129985814	3.413687923630197	-0.08274065852768793	-514.8476270173082	-83.55322211582822	-39.8953749350573	-4.465487198480569	-1.862933894110866	-0.9845569696268583	12.65158931185254	-2.150820558967956	3.379136699255847	-2.862199390004431	10.36053887381455	10.36053887383498	0.6664394344634033	-0.8582978540672325	2.367581488985693	-1.071739864300038	-2.87973166802187e-08	1.074210101913144e-07	1.349803552019039e-07	8.26100685248375e-09	-1.418334251938019e-08	-5.001952754899059e-08	-9.149358260017858e-09
0.01	-0.03964382151036047	0.06878020709948887	0.895899220787303	0.1961406473600323	-0.3221527262286106	-0.4824254874081662	-0.1380534916226995	0.07065626502348329	0.07065626502348543	-0.1745027702279921	-0.1171378739738197	-0.06689672277842444	0.003713147103316514	-0.04243741631964463	-0.01823441699965851	-0.009526287243596854	0.121826141546677	-0.02104237099029396	0.0338106419404197	-0.02953208128585311	0.10023396632867	0.1002339663287461	0.006024791340619269	-0.007270784401128397	0.02270616531012008	-0.01074432540215359	0.1024341140633651	-0.101642647011611	-0.02925212083455521	-0.2292407099799664	0.1841172520263976	-0.009485779792507894	-0.04803669022841954	23.65835175701589	-2.994385931581938	3.535812928320843	0.09618981611150515	-515.7641594669008	-84.8497187595778	-39.90561204351624	-4.104710291177186	-1.788159476471211	-0.9318971233828365	11.8653568011858	-2.063687647075333	3.361558455781016	-2.95900855998576	9.788395312633899	9.788395312631902	0.5718070699508099	-0.6539183185920947	2.211949379861779	-1.062584735679017	-6.904707713656806e-08	1.473369624167874e-07	2.063943818654751e-07	4.784589861139631e-08	-2.421073113317747e-07	-9.432727747700731e-08	-1.342677506855028e-08
0.02	-0.04027569004749906	0.06850928025397124	0.8957571209638171	0.1979542441253088	-0.3224654865446325	-0.4819217399002252	-0.1384898555190061	0.07214870287944619	0.07214870287944633	-0.1744121792096754	-0.1172456768464663	-0.06655782769102958	0.003554180161328142	-0.08374849033811167	-0.03584738894242391	-0.01886187535347463	0.2403414920977821	-0.04139443310119291	0.0668025044546776	-0.05747600505610749	0.1978107246669664	0.1978107246669903	0.01210190612482183	-0.01423955222051441	0.04500494373370441	-0.02096088510454752	0.09869365482016587	-0.100795169871491	-0.0286403922831684	-0.2253747740372445	0.1792481549149068	-0.007218516567075294	-0.0447302727003667	22.21708661423182	-3.733442005665495	3.661336482449824	0.1146918607154738	-515.7436343176878	-85.98118040240126	-39.93571776609523	-4.240218738245056	-1.738644882732242	-0.9464171428830437	11.98943111273816	-2.01275878308896	3.215380814023488	-2.544567886884694	9.829097275739834	9.829097275734595	0.6769041231800493	-0.7978945377187566	2.286104111678542	-0.9661867243481118	-1.092968375929174e-07	1.872529146422603e-07	2.778084085290464e-07	8.743079037030888e-08	-4.700312801441693e-07	-1.38635027405024e-07	-1.77041918770827e-08
0.03	-0.04131550213316427	0.06806521757093681	0.8955222998725842	0.2009374551914569	-0.3229783030573585	-0.4810924019353654	-0.1391972109779283	0.07460412429493637	0.07460412429493488	-0.1742606395808755	-0.1174220758101455	-0.06599800467538788	0.003295671350760337	-0.1240086013150556	-0.05287010887160022	-0.02809333243461197	0.3557392979343262	-0.06105377072006391	0.09893077171621135	-0.08374576900438335	0.2928155517056659	0.2928155517056642	0.01817618463002241	-0.02098358257828293	0.06686581484497138	-0.03066881409563797	0.09407595238863876	-0.09760134572391284	-0.02785982104055717	-0.2208574411803262	0.1739756965432476	-0.006437107235005709	-0.04087893893367365	20.58889189564612	-3.858889681827814	3.762625378770818	0.573092614864078	-515.6520002995215	-85.66681392817749	-39.98444089376896	-3.888120731731579	-1.66981208298642	-0.9102533491162744	11.23072186586974	-1.925306873524145	3.191366449562533	-2.630782990226871	9.267477967155141	9.267477967154653	0.5682780041633309	-0.6041255142419022	2.122000376013061	-0.9623472685239334	-1.398358121950416e-07	2.053488853069379e-07	3.395974284399995e-07	1.153321460185429e-07	-6.414161701082871e-07	-1.780414425624335e-07	-2.261469769297787e-08
0.04	-0.042751758019462	0.06745378238161533	0.8951954155388625	0.205057797625325	-0.3236842700707218	-0.4799458179444255	-0.1401597845446189	0.077995854490664	0.07799585449066412	-0.1740492395090362	-0.1176642087232809	-0.0652223885956012	0.002942232993874751	-0.1630372504645073	-0.06932189019983331	-0.03727452385125183	0.4677677656411516	-0.08002453322845578	0.1302517096715146	-0.1085196266097736	0.3850724807131723	0.3850724807131748	0.02407399473415714	-0.02738634211349265	0.08816355656273045	-0.03994679436810396	0.08945824995717352	-0.0944075215763248	-0.02707924979797803	-0.216340108323356	0.1687032381716124	-0.00565569790291207	-0.0370276051669561	19.01916929260775	-3.994558398866817	3.865525135203111	0.8818348874367106	-514.7084991656467	-85.19677599917549	-40.05022942210723	-3.99392637274662	-1.624457162543599	-0.9363640099835494	11.31556348679442	-1.875043760993132	3.053914952777393	-2.245386618307574	9.27951766950124	9.279517669501944	0.6416104429668855	-0.7296403732069958	2.17347823297696	-0.8801969806232172	-1.701745644084189e-07	2.229949594445888e-07	4.01187994603476e-07	1.429926040150104e-07	-8.116353058693477e-07	-2.173467992709644e-07	-2.753825689046816e-08
0.05	-0.0445729082091463	0.06668064898544708	0.8947766872922279	0.210283130910807	-0.3245764016174058	-0.4784903704124127	-0.1413620317545284	0.08229740161242956	0.08229740161242918	-0.1737793413861822	-0.1179693124945169	-0.06423626432786383	0.002498450698979822	-0.2009867757318291	-0.08520941397601099	-0.04647996306900339	0.576752225907553	-0.09827215994175041	0.1606996314151083	-0.1317008647569347	0.4747837772664685	0.4747837772664736	0.02988609109856854	-0.03358193217137506	0.1089671645962653	-0.04872340201508096	0.08461674726611856	-0.09050436557578791	-0.02630369866227045	-0.2124191483917794	0.1642572008854359	-0.005510881260508132	-0.03308656297106013	17.68161103750663	-3.905318283403634	3.945032984930829	1.189175582723813	-513.8560104101122	-84.1633706679099	-40.13113382877935	-3.664576077020631	-1.556564904449691	-0.9141232192428135	10.60786203459856	-1.780243085235166	3.019452004441381	-2.320149820671245	8.748966239673752	8.748966239673749	0.548161826768172	-0.5565950544946808	2.019678282233037	-0.8635331653681638	-1.875328657268283e-07	2.251329639098409e-07	4.358125090539337e-07	1.600404406554313e-07	-9.162525762919063e-07	-2.404979805994886e-07	-3.033355717551149e-08
